<svg width="321" height="93" viewBox="0 0 321 93" fill="none" xmlns="http://www.w3.org/2000/svg">
<path d="M1.50507 10.0889C0.943844 20.3896 6.35405 42.4454 32.4847 48.2623C58.6153 54.0792 66.3826 73.8214 67 82.9654" stroke="#456158" stroke-width="1.95519"/>
<path d="M1 8.93213V1H67V8.93213H1Z" stroke="#456158" stroke-width="1.95519"/>
<path d="M1 91.3933V83.4612H67V91.3933H1Z" stroke="#456158" stroke-width="1.95519"/>
<path d="M1.50507 10.0889C0.943844 20.3896 6.35405 42.4454 32.4847 48.2623C58.6153 54.0792 66.3826 73.8214 67 82.9654" stroke="#456158" stroke-width="1.95519"/>
<path d="M66.3264 10.0889C65.2601 23.0888 58.2111 48.4606 38.5458 45.9487" stroke="#456158" stroke-width="1.95519"/>
<path d="M1 83.4611C2.68367 73.3807 10.5969 53.0876 28.7806 52.5588" stroke="#456158" stroke-width="1.95519"/>
<path d="M87.0491 37.92H73.6091V30H110.209V37.92H96.7691V72H87.0491V37.92ZM114.076 39.72H123.436V72H114.076V39.72ZM118.756 35.22C117.036 35.22 115.636 34.72 114.556 33.72C113.476 32.72 112.936 31.48 112.936 30C112.936 28.52 113.476 27.28 114.556 26.28C115.636 25.28 117.036 24.78 118.756 24.78C120.476 24.78 121.876 25.26 122.956 26.22C124.036 27.18 124.576 28.38 124.576 29.82C124.576 31.38 124.036 32.68 122.956 33.72C121.876 34.72 120.476 35.22 118.756 35.22ZM173.463 39.24C177.503 39.24 180.703 40.44 183.063 42.84C185.463 45.2 186.663 48.76 186.663 53.52V72H177.303V54.96C177.303 52.4 176.763 50.5 175.683 49.26C174.643 47.98 173.143 47.34 171.183 47.34C168.983 47.34 167.243 48.06 165.963 49.5C164.683 50.9 164.043 53 164.043 55.8V72H154.683V54.96C154.683 49.88 152.643 47.34 148.563 47.34C146.403 47.34 144.683 48.06 143.403 49.5C142.123 50.9 141.483 53 141.483 55.8V72H132.123V39.72H141.063V43.44C142.263 42.08 143.723 41.04 145.443 40.32C147.203 39.6 149.123 39.24 151.203 39.24C153.483 39.24 155.543 39.7 157.383 40.62C159.223 41.5 160.703 42.8 161.823 44.52C163.143 42.84 164.803 41.54 166.803 40.62C168.843 39.7 171.063 39.24 173.463 39.24ZM227.024 55.98C227.024 56.1 226.964 56.94 226.844 58.5H202.424C202.864 60.5 203.904 62.08 205.544 63.24C207.184 64.4 209.224 64.98 211.664 64.98C213.344 64.98 214.824 64.74 216.104 64.26C217.424 63.74 218.644 62.94 219.764 61.86L224.744 67.26C221.704 70.74 217.264 72.48 211.424 72.48C207.784 72.48 204.564 71.78 201.764 70.38C198.964 68.94 196.804 66.96 195.284 64.44C193.764 61.92 193.004 59.06 193.004 55.86C193.004 52.7 193.744 49.86 195.224 47.34C196.744 44.78 198.804 42.8 201.404 41.4C204.044 39.96 206.984 39.24 210.224 39.24C213.384 39.24 216.244 39.92 218.804 41.28C221.364 42.64 223.364 44.6 224.804 47.16C226.284 49.68 227.024 52.62 227.024 55.98ZM210.284 46.32C208.164 46.32 206.384 46.92 204.944 48.12C203.504 49.32 202.624 50.96 202.304 53.04H218.204C217.884 51 217.004 49.38 215.564 48.18C214.124 46.94 212.364 46.32 210.284 46.32ZM233.256 39.72H242.616V72H233.256V39.72ZM237.936 35.22C236.216 35.22 234.816 34.72 233.736 33.72C232.656 32.72 232.116 31.48 232.116 30C232.116 28.52 232.656 27.28 233.736 26.28C234.816 25.28 236.216 24.78 237.936 24.78C239.656 24.78 241.056 25.26 242.136 26.22C243.216 27.18 243.756 28.38 243.756 29.82C243.756 31.38 243.216 32.68 242.136 33.72C241.056 34.72 239.656 35.22 237.936 35.22ZM261.562 40.44H269.842V47.64H261.802V72H252.442V47.64H247.462V40.44H252.442V39C252.442 35.32 253.522 32.4 255.682 30.24C257.882 28.08 260.962 27 264.922 27C266.322 27 267.642 27.16 268.882 27.48C270.162 27.76 271.222 28.18 272.062 28.74L269.602 35.52C268.522 34.76 267.262 34.38 265.822 34.38C262.982 34.38 261.562 35.94 261.562 39.06V40.44ZM307.131 39.72L292.551 73.98C291.071 77.7 289.231 80.32 287.031 81.84C284.871 83.36 282.251 84.12 279.171 84.12C277.491 84.12 275.831 83.86 274.191 83.34C272.551 82.82 271.211 82.1 270.171 81.18L273.591 74.52C274.311 75.16 275.131 75.66 276.051 76.02C277.011 76.38 277.951 76.56 278.871 76.56C280.151 76.56 281.191 76.24 281.991 75.6C282.791 75 283.511 73.98 284.151 72.54L284.271 72.24L270.291 39.72H279.951L289.011 61.62L298.131 39.72H307.131Z" fill="#456158"/>
</svg>
