<svg width="307" height="307" viewBox="0 0 307 307" fill="none" xmlns="http://www.w3.org/2000/svg">
<rect width="307" height="307" fill="black" fill-opacity="0.5"/>
<path d="M105.73 241.24C103.63 241.24 101.73 240.78 100.03 239.86C98.3504 238.92 97.0304 237.64 96.0704 236.02C95.1104 234.38 94.6304 232.54 94.6304 230.5C94.6304 228.46 95.1104 226.63 96.0704 225.01C97.0304 223.37 98.3604 222.09 100.06 221.17C101.76 220.23 103.66 219.76 105.76 219.76C107.4 219.76 108.9 220.04 110.26 220.6C111.62 221.14 112.78 221.95 113.74 223.03L111.79 224.92C110.21 223.26 108.24 222.43 105.88 222.43C104.32 222.43 102.91 222.78 101.65 223.48C100.39 224.18 99.4004 225.15 98.6804 226.39C97.9804 227.61 97.6304 228.98 97.6304 230.5C97.6304 232.02 97.9804 233.4 98.6804 234.64C99.4004 235.86 100.39 236.82 101.65 237.52C102.91 238.22 104.32 238.57 105.88 238.57C108.22 238.57 110.19 237.73 111.79 236.05L113.74 237.94C112.78 239.02 111.61 239.84 110.23 240.4C108.87 240.96 107.37 241.24 105.73 241.24ZM126.09 224.95C128.11 224.95 129.71 225.54 130.89 226.72C132.09 227.88 132.69 229.59 132.69 231.85V241H129.81V232.18C129.81 230.64 129.44 229.48 128.7 228.7C127.96 227.92 126.9 227.53 125.52 227.53C123.96 227.53 122.73 227.99 121.83 228.91C120.93 229.81 120.48 231.11 120.48 232.81V241H117.6V218.74H120.48V227.35C121.08 226.59 121.86 226 122.82 225.58C123.8 225.16 124.89 224.95 126.09 224.95ZM143.81 224.95C146.01 224.95 147.69 225.49 148.85 226.57C150.03 227.65 150.62 229.26 150.62 231.4V241H147.89V238.9C147.41 239.64 146.72 240.21 145.82 240.61C144.94 240.99 143.89 241.18 142.67 241.18C140.89 241.18 139.46 240.75 138.38 239.89C137.32 239.03 136.79 237.9 136.79 236.5C136.79 235.1 137.3 233.98 138.32 233.14C139.34 232.28 140.96 231.85 143.18 231.85H147.74V231.28C147.74 230.04 147.38 229.09 146.66 228.43C145.94 227.77 144.88 227.44 143.48 227.44C142.54 227.44 141.62 227.6 140.72 227.92C139.82 228.22 139.06 228.63 138.44 229.15L137.24 226.99C138.06 226.33 139.04 225.83 140.18 225.49C141.32 225.13 142.53 224.95 143.81 224.95ZM143.15 238.96C144.25 238.96 145.2 238.72 146 238.24C146.8 237.74 147.38 237.04 147.74 236.14V233.92H143.3C140.86 233.92 139.64 234.74 139.64 236.38C139.64 237.18 139.95 237.81 140.57 238.27C141.19 238.73 142.05 238.96 143.15 238.96ZM164.44 224.95C166.46 224.95 168.06 225.54 169.24 226.72C170.44 227.88 171.04 229.59 171.04 231.85V241H168.16V232.18C168.16 230.64 167.79 229.48 167.05 228.7C166.31 227.92 165.25 227.53 163.87 227.53C162.31 227.53 161.08 227.99 160.18 228.91C159.28 229.81 158.83 231.11 158.83 232.81V241H155.95V225.1H158.71V227.5C159.29 226.68 160.07 226.05 161.05 225.61C162.05 225.17 163.18 224.95 164.44 224.95ZM191.668 225.1V238.84C191.668 241.62 190.978 243.67 189.598 244.99C188.218 246.33 186.158 247 183.418 247C181.918 247 180.488 246.79 179.128 246.37C177.768 245.97 176.668 245.39 175.828 244.63L177.208 242.41C177.948 243.05 178.858 243.55 179.938 243.91C181.038 244.29 182.168 244.48 183.328 244.48C185.188 244.48 186.558 244.04 187.438 243.16C188.338 242.28 188.788 240.94 188.788 239.14V237.88C188.108 238.7 187.268 239.32 186.268 239.74C185.288 240.14 184.218 240.34 183.058 240.34C181.538 240.34 180.158 240.02 178.918 239.38C177.698 238.72 176.738 237.81 176.038 236.65C175.338 235.47 174.988 234.13 174.988 232.63C174.988 231.13 175.338 229.8 176.038 228.64C176.738 227.46 177.698 226.55 178.918 225.91C180.158 225.27 181.538 224.95 183.058 224.95C184.258 224.95 185.368 225.17 186.388 225.61C187.428 226.05 188.278 226.7 188.938 227.56V225.1H191.668ZM183.388 237.82C184.428 237.82 185.358 237.6 186.178 237.16C187.018 236.72 187.668 236.11 188.128 235.33C188.608 234.53 188.848 233.63 188.848 232.63C188.848 231.09 188.338 229.85 187.318 228.91C186.298 227.95 184.988 227.47 183.388 227.47C181.768 227.47 180.448 227.95 179.428 228.91C178.408 229.85 177.898 231.09 177.898 232.63C177.898 233.63 178.128 234.53 178.588 235.33C179.068 236.11 179.718 236.72 180.538 237.16C181.378 237.6 182.328 237.82 183.388 237.82ZM211.54 233.14C211.54 233.36 211.52 233.65 211.48 234.01H198.58C198.76 235.41 199.37 236.54 200.41 237.4C201.47 238.24 202.78 238.66 204.34 238.66C206.24 238.66 207.77 238.02 208.93 236.74L210.52 238.6C209.8 239.44 208.9 240.08 207.82 240.52C206.76 240.96 205.57 241.18 204.25 241.18C202.57 241.18 201.08 240.84 199.78 240.16C198.48 239.46 197.47 238.49 196.75 237.25C196.05 236.01 195.7 234.61 195.7 233.05C195.7 231.51 196.04 230.12 196.72 228.88C197.42 227.64 198.37 226.68 199.57 226C200.79 225.3 202.16 224.95 203.68 224.95C205.2 224.95 206.55 225.3 207.73 226C208.93 226.68 209.86 227.64 210.52 228.88C211.2 230.12 211.54 231.54 211.54 233.14ZM203.68 227.38C202.3 227.38 201.14 227.8 200.2 228.64C199.28 229.48 198.74 230.58 198.58 231.94H208.78C208.62 230.6 208.07 229.51 207.13 228.67C206.21 227.81 205.06 227.38 203.68 227.38ZM94.6416 278.24C92.5416 278.24 90.6416 277.78 88.9416 276.86C87.2616 275.92 85.9416 274.64 84.9816 273.02C84.0216 271.38 83.5416 269.54 83.5416 267.5C83.5416 265.46 84.0216 263.63 84.9816 262.01C85.9416 260.37 87.2716 259.09 88.9716 258.17C90.6716 257.23 92.5716 256.76 94.6716 256.76C96.3116 256.76 97.8116 257.04 99.1716 257.6C100.532 258.14 101.692 258.95 102.652 260.03L100.702 261.92C99.1216 260.26 97.1516 259.43 94.7916 259.43C93.2316 259.43 91.8216 259.78 90.5616 260.48C89.3016 261.18 88.3116 262.15 87.5916 263.39C86.8916 264.61 86.5416 265.98 86.5416 267.5C86.5416 269.02 86.8916 270.4 87.5916 271.64C88.3116 272.86 89.3016 273.82 90.5616 274.52C91.8216 275.22 93.2316 275.57 94.7916 275.57C97.1316 275.57 99.1016 274.73 100.702 273.05L102.652 274.94C101.692 276.02 100.522 276.84 99.1416 277.4C97.7816 277.96 96.2816 278.24 94.6416 278.24ZM112.647 278.18C111.067 278.18 109.647 277.83 108.387 277.13C107.127 276.43 106.137 275.47 105.417 274.25C104.717 273.01 104.367 271.61 104.367 270.05C104.367 268.49 104.717 267.1 105.417 265.88C106.137 264.64 107.127 263.68 108.387 263C109.647 262.3 111.067 261.95 112.647 261.95C114.227 261.95 115.637 262.3 116.877 263C118.137 263.68 119.117 264.64 119.817 265.88C120.537 267.1 120.897 268.49 120.897 270.05C120.897 271.61 120.537 273.01 119.817 274.25C119.117 275.47 118.137 276.43 116.877 277.13C115.637 277.83 114.227 278.18 112.647 278.18ZM112.647 275.66C113.667 275.66 114.577 275.43 115.377 274.97C116.197 274.49 116.837 273.83 117.297 272.99C117.757 272.13 117.987 271.15 117.987 270.05C117.987 268.95 117.757 267.98 117.297 267.14C116.837 266.28 116.197 265.62 115.377 265.16C114.577 264.7 113.667 264.47 112.647 264.47C111.627 264.47 110.707 264.7 109.887 265.16C109.087 265.62 108.447 266.28 107.967 267.14C107.507 267.98 107.277 268.95 107.277 270.05C107.277 271.15 107.507 272.13 107.967 272.99C108.447 273.83 109.087 274.49 109.887 274.97C110.707 275.43 111.627 275.66 112.647 275.66ZM138.511 262.1L131.551 278H128.611L121.651 262.1H124.651L130.111 274.85L135.691 262.1H138.511ZM155.129 270.14C155.129 270.36 155.109 270.65 155.069 271.01H142.169C142.349 272.41 142.959 273.54 143.999 274.4C145.059 275.24 146.369 275.66 147.929 275.66C149.829 275.66 151.359 275.02 152.519 273.74L154.109 275.6C153.389 276.44 152.489 277.08 151.409 277.52C150.349 277.96 149.159 278.18 147.839 278.18C146.159 278.18 144.669 277.84 143.369 277.16C142.069 276.46 141.059 275.49 140.339 274.25C139.639 273.01 139.289 271.61 139.289 270.05C139.289 268.51 139.629 267.12 140.309 265.88C141.009 264.64 141.959 263.68 143.159 263C144.379 262.3 145.749 261.95 147.269 261.95C148.789 261.95 150.139 262.3 151.319 263C152.519 263.68 153.449 264.64 154.109 265.88C154.789 267.12 155.129 268.54 155.129 270.14ZM147.269 264.38C145.889 264.38 144.729 264.8 143.789 265.64C142.869 266.48 142.329 267.58 142.169 268.94H152.369C152.209 267.6 151.659 266.51 150.719 265.67C149.799 264.81 148.649 264.38 147.269 264.38ZM161.888 264.77C162.388 263.85 163.128 263.15 164.108 262.67C165.088 262.19 166.278 261.95 167.678 261.95V264.74C167.518 264.72 167.298 264.71 167.018 264.71C165.458 264.71 164.228 265.18 163.328 266.12C162.448 267.04 162.008 268.36 162.008 270.08V278H159.128V262.1H161.888V264.77ZM193.29 272.75H182.13L179.82 278H176.73L186.24 257H189.21L198.75 278H195.6L193.29 272.75ZM192.24 270.35L187.71 260.06L183.18 270.35H192.24ZM204.222 264.77C204.722 263.85 205.462 263.15 206.442 262.67C207.422 262.19 208.612 261.95 210.012 261.95V264.74C209.852 264.72 209.632 264.71 209.352 264.71C207.792 264.71 206.562 265.18 205.662 266.12C204.782 267.04 204.342 268.36 204.342 270.08V278H201.462V262.1H204.222V264.77ZM223.147 277.07C222.727 277.43 222.207 277.71 221.587 277.91C220.967 278.09 220.327 278.18 219.667 278.18C218.067 278.18 216.827 277.75 215.947 276.89C215.067 276.03 214.627 274.8 214.627 273.2V264.47H211.927V262.1H214.627V258.62H217.507V262.1H222.067V264.47H217.507V273.08C217.507 273.94 217.717 274.6 218.137 275.06C218.577 275.52 219.197 275.75 219.997 275.75C220.877 275.75 221.627 275.5 222.247 275L223.147 277.07Z" fill="white"/>
<path d="M82.4747 150.568L76 185L110.433 178.525L203.582 85.3762L175.624 57.4184L82.4747 150.568ZM106.728 171.507L85.5021 175.498L89.4934 154.272L175.624 68.1413L192.859 85.3762L106.728 171.507Z" fill="white"/>
<path d="M203.043 30L182.062 50.9811L210.019 78.9384L231 57.9573L203.043 30ZM192.784 50.9811L203.043 40.7228L220.277 57.9573L210.019 68.2156L192.784 50.9811Z" fill="white"/>
</svg>
